<?xml version="1.0" encoding="UTF-8" standalone="no"?>
<!DOCTYPE svg PUBLIC "-//W3C//DTD SVG 1.1//EN" "http://www.w3.org/Graphics/SVG/1.1/DTD/svg11.dtd">
<svg width="100%" height="100%" viewBox="0 0 3000 3000" version="1.1" xmlns="http://www.w3.org/2000/svg" xmlns:xlink="http://www.w3.org/1999/xlink" xml:space="preserve" xmlns:serif="http://www.serif.com/" style="fill-rule:evenodd;clip-rule:evenodd;stroke-linejoin:round;stroke-miterlimit:2;">
    <g transform="matrix(2.77778,0,0,2.77778,0,0)">
        <path d="M502.985,275.819C718.759,-18.125 959.023,86.854 959.957,360.454C960.904,638.176 636.375,748.941 518.553,971.96C439.167,847.843 131.49,808.421 139.903,508.826C151.192,106.799 497.08,176.409 502.985,275.819ZM655.879,685.264C657.159,672.914 648.868,665.321 639.655,660.005C607.962,641.722 542.209,622.991 492.015,617.946C441.821,612.901 388.498,617.207 334.746,629.464C325.258,631.628 314.427,637.441 313.146,649.791C311.865,662.141 323.42,677.063 333.849,674.488C401.46,657.801 442.247,657.801 491.802,662.94C540.103,667.948 573.735,674.929 631.181,705.321C640.555,710.28 654.598,697.615 655.879,685.264ZM818.227,479.772C820.408,458.744 806.291,445.815 790.604,436.765C736.643,405.635 624.689,373.743 539.226,365.153C453.763,356.563 362.973,363.895 271.453,384.764C255.3,388.448 236.858,398.346 234.677,419.374C232.496,440.402 252.169,465.807 269.926,461.425C385.044,433.012 454.489,433.011 538.864,441.761C621.103,450.289 678.366,462.175 776.176,513.921C792.137,522.365 816.047,500.8 818.227,479.772ZM723.114,588.574C724.766,572.638 714.068,562.84 702.18,555.981C661.286,532.39 576.444,508.221 511.677,501.712C446.911,495.202 378.107,500.758 308.75,516.574C296.508,519.365 282.532,526.866 280.88,542.802C279.227,558.737 294.136,577.991 307.593,574.669C394.833,553.138 447.461,553.137 511.403,559.767C573.727,566.23 617.122,575.238 691.246,614.453C703.342,620.852 721.461,604.51 723.114,588.574Z" style="fill:white;"/>
    </g>
</svg>
