<?xml version="1.0" encoding="UTF-8" standalone="no"?>
<!DOCTYPE svg PUBLIC "-//W3C//DTD SVG 1.1//EN" "http://www.w3.org/Graphics/SVG/1.1/DTD/svg11.dtd">
<svg width="100%" height="100%" viewBox="0 0 1080 1080" version="1.1" xmlns="http://www.w3.org/2000/svg" xmlns:xlink="http://www.w3.org/1999/xlink" xml:space="preserve" xmlns:serif="http://www.serif.com/" style="fill-rule:evenodd;clip-rule:evenodd;stroke-linejoin:round;stroke-miterlimit:2;">
    <path d="M534.78,212.304C548.186,97.449 989.014,3.209 989.014,416.256C989.014,733.51 687.156,752.77 552.564,1007.53C461.878,865.749 91.047,794.094 91.047,451.72C91.047,1.745 528.034,98.744 534.78,212.304ZM871.633,400.012C871.614,374.954 854.221,361.45 835.518,352.713C771.184,322.658 641.55,298.846 544.443,299.241C447.336,299.637 346.109,319.458 245.653,355.328C227.922,361.659 208.348,375.598 208.367,400.655C208.386,425.713 233.493,453.24 252.945,445.888C379.049,398.22 457.136,389.67 553.038,389.596C646.514,389.524 712.299,396.487 828.362,445.446C847.301,453.435 871.652,425.069 871.633,400.012ZM762.655,514.71C762.642,497.888 750.965,488.823 738.409,482.957C695.22,462.78 608.192,446.794 543.001,447.06C477.809,447.325 409.852,460.632 342.413,484.712C330.509,488.963 317.369,498.32 317.381,515.142C317.394,531.964 334.249,550.445 347.308,545.508C431.966,513.508 484.388,507.767 548.771,507.718C611.524,507.67 655.688,512.344 733.605,545.212C746.32,550.575 762.667,531.532 762.655,514.71ZM702.105,619.711C702.096,607.462 693.594,600.861 684.452,596.59C653.005,581.9 589.639,570.26 542.172,570.453C494.705,570.646 445.224,580.335 396.12,597.869C387.453,600.963 377.885,607.777 377.895,620.025C377.904,632.273 390.176,645.729 399.685,642.135C461.326,618.835 499.495,614.655 546.373,614.619C592.065,614.584 624.222,617.988 680.954,641.919C690.212,645.825 702.115,631.959 702.105,619.711Z" style="fill:white;"/>
</svg>
